<svg xmlns="http://www.w3.org/2000/svg" viewBox="0 0 200 200"><defs><style>.cls-1{fill:none;}.cls-2{fill:#7711f7;}.cls-3{fill:#fff;}.cls-4{fill:#8712fb;}</style></defs><g id="Layer_2" data-name="Layer 2"><g id="Layer_1-2" data-name="Layer 1"><rect class="cls-1" width="200" height="200"/><path class="cls-2" d="M185.52,103.53c0-2.38,0-4.76,0-7.14,0-.14,0-.27,0-.4s-.09-.39-.37-.42a16.22,16.22,0,0,1-2.67-.55,15.23,15.23,0,0,1-7.42-5,27.43,27.43,0,0,1-4.53-8.2,55.74,55.74,0,0,1-2.8-11.37,112.29,112.29,0,0,1-1-20.65,15,15,0,0,0-.26-3.72,20.91,20.91,0,0,0-1-3.44,19.24,19.24,0,0,0-3-5,16.07,16.07,0,0,0-12.28-5.78H125.3c-1.54,0-3.07,0-4.61,0l-.73,0q-34.74,0-69.46,0C41.84,31.58,35,38.25,33.68,46.1a18.62,18.62,0,0,0-.24,3.65c.12,3.36.13,6.72,0,10.08a82.38,82.38,0,0,1-2.51,18A37.18,37.18,0,0,1,27.21,87,19.52,19.52,0,0,1,23,92.16a14.77,14.77,0,0,1-8.51,3.45v8.68a15.29,15.29,0,0,1,11,6,28.81,28.81,0,0,1,4.36,8.28,57.12,57.12,0,0,1,2.55,10.47,97,97,0,0,1,1.08,12.75c0,.13,0,.26,0,.39l.24,0-.24,0c0,.45,0,.89,0,1.33.07,2.34,0,4.67-.08,7a17.55,17.55,0,0,0,1.89,8.27,17.25,17.25,0,0,0,3.45,4.68,16.21,16.21,0,0,0,7.68,4.18,17.07,17.07,0,0,0,3,.45H151.28a15.28,15.28,0,0,1,1.77-.32,16.58,16.58,0,0,0,12-9.42,17.39,17.39,0,0,0,1.7-8.61,119.05,119.05,0,0,1,.28-13.88,77.22,77.22,0,0,1,1.79-12,40.74,40.74,0,0,1,3.82-10.42,19.11,19.11,0,0,1,5.5-6.45,14.69,14.69,0,0,1,6.63-2.63C185.7,104.28,185.52,104.35,185.52,103.53Zm-56.68,16.55a19.31,19.31,0,0,1-1,3.45,20,20,0,0,1-1.64,3.19,15.84,15.84,0,0,1-3,3.51,22.93,22.93,0,0,1-5.87,3.65,30.61,30.61,0,0,1-5.73,1.77,33.31,33.31,0,0,1-4.23.56c-1.6.13-3.2.14-4.8.14H74.78c-1,0-1,0-1-1V64.62c0-.31,0-.62,0-.93a.08.08,0,0,0,0-.1c.25,0,.49,0,.73,0h29.13a29.09,29.09,0,0,1,10.28,1.74,19,19,0,0,1,6.72,4.21,17.11,17.11,0,0,1,3.11,19.67,15.94,15.94,0,0,1-10.61,8.37l-.86.19a7.28,7.28,0,0,0,1.58.38,21,21,0,0,1,3.42.89,17.67,17.67,0,0,1,7.81,5.2,22.5,22.5,0,0,1,2.21,3.26,17.09,17.09,0,0,1,1.38,3.71A19.44,19.44,0,0,1,128.84,120.08Z"/><path class="cls-3" d="M73.78,63.69a.08.08,0,0,0,0-.1c.25,0,.49,0,.73,0h29.13a29.09,29.09,0,0,1,10.28,1.74,19,19,0,0,1,6.72,4.21,17.11,17.11,0,0,1,3.11,19.67,15.94,15.94,0,0,1-10.61,8.37l-.86.19a7.28,7.28,0,0,0,1.58.38,21,21,0,0,1,3.42.89,17.67,17.67,0,0,1,7.81,5.2,22.5,22.5,0,0,1,2.21,3.26,17.09,17.09,0,0,1,1.38,3.71,20.24,20.24,0,0,1-.91,12.36,20,20,0,0,1-1.64,3.19,15.84,15.84,0,0,1-3,3.51,22.93,22.93,0,0,1-5.87,3.65,30.61,30.61,0,0,1-5.73,1.77,33.31,33.31,0,0,1-4.23.56c-1.6.13-3.2.14-4.8.14H74.78c-1,0-1,0-1-1V64.62C73.81,64.31,73.79,64,73.78,63.69ZM87.12,94.36a3.35,3.35,0,0,0,1,0,2.3,2.3,0,0,0,.26,0H99.23a3.87,3.87,0,0,0,1.12-.1,4.37,4.37,0,0,0,1.14-.06,1.1,1.1,0,0,0,.57-.08,1.54,1.54,0,0,0,.64-.06.65.65,0,0,0,.41-.08,4.45,4.45,0,0,0,1.49-.26,15.49,15.49,0,0,0,4.71-1.88,9.14,9.14,0,0,0,4.08-5.55,11.83,11.83,0,0,0,0-5.94,8.23,8.23,0,0,0-2.52-4.23,11.82,11.82,0,0,0-6.9-2.83,2.79,2.79,0,0,0-1.18-.13,12.44,12.44,0,0,0-2.2-.12H86.51c-.91,0-.83-.09-.83.82q0,9.84,0,19.68a2.25,2.25,0,0,0,0,.73A2.84,2.84,0,0,0,87.12,94.36Zm18.82,32.11a3,3,0,0,0,.66-.06,18,18,0,0,0,3.69-1,10.08,10.08,0,0,0,6.22-6.19,13.16,13.16,0,0,0,.55-5.81,9.59,9.59,0,0,0-4.55-7.47,12.91,12.91,0,0,0-2.2-1.1,21.94,21.94,0,0,0-7.63-1.45c-5.41-.12-10.82,0-16.23,0-.87,0-.77,0-.77.75v22.17c0,.59,0,.59.58.6a.66.66,0,0,0,.14,0h14.83c1,0,2,0,3.06-.14a1.14,1.14,0,0,0,.58-.08,1.62,1.62,0,0,0,.62,0A.71.71,0,0,0,105.94,126.47Z"/><path class="cls-2" d="M104.29,126.69c-1,.1-2,.14-3.06.14H86.4a.66.66,0,0,1-.14,0c-.57,0-.57,0-.58-.6V104.06c0-.78-.1-.75.77-.75,5.41,0,10.82-.07,16.23,0a21.94,21.94,0,0,1,7.63,1.45,12.91,12.91,0,0,1,2.2,1.1,9.59,9.59,0,0,1,4.55,7.47,13.16,13.16,0,0,1-.55,5.81,10.08,10.08,0,0,1-6.22,6.19,18,18,0,0,1-3.69,1,3,3,0,0,1-.66.06.72.72,0,0,0-.45.09,1.58,1.58,0,0,1-.61,0A1,1,0,0,0,104.29,126.69Z"/><path class="cls-2" d="M88.12,94.36a3.35,3.35,0,0,1-1,0,4.34,4.34,0,0,0-1.39-.07,2.25,2.25,0,0,1,0-.73q0-9.84,0-19.68c0-.91-.08-.82.83-.82h14.08a12.44,12.44,0,0,1,2.2.12,2.61,2.61,0,0,0,1.18.13,11.82,11.82,0,0,1,6.9,2.83,8.23,8.23,0,0,1,2.52,4.23,11.83,11.83,0,0,1,0,5.94,9.14,9.14,0,0,1-4.08,5.55,15.49,15.49,0,0,1-4.71,1.88,4.45,4.45,0,0,1-1.49.26.74.74,0,0,0-.41.08,1.54,1.54,0,0,1-.64.06,1.12,1.12,0,0,0-.57.08,4.37,4.37,0,0,1-1.14.06H88.64A1.14,1.14,0,0,0,88.12,94.36Z"/><path class="cls-4" d="M88.12,94.36a1.14,1.14,0,0,1,.52-.08h11.71a3.87,3.87,0,0,1-1.12.1H88.38A2.3,2.3,0,0,1,88.12,94.36Z"/><path class="cls-4" d="M85.73,94.29a4.34,4.34,0,0,1,1.39.07A2.84,2.84,0,0,1,85.73,94.29Z"/><path class="cls-4" d="M104,73.31a2.61,2.61,0,0,1-1.18-.13A2.79,2.79,0,0,1,104,73.31Z"/><path class="cls-4" d="M101.49,94.22a1.12,1.12,0,0,1,.57-.08A1.1,1.1,0,0,1,101.49,94.22Z"/><path class="cls-4" d="M104.29,126.69a1,1,0,0,1,.59-.08A1.2,1.2,0,0,1,104.29,126.69Z"/><path class="cls-4" d="M102.7,94.08a.74.74,0,0,1,.41-.08A.65.65,0,0,1,102.7,94.08Z"/><path class="cls-4" d="M105.49,126.56a.72.72,0,0,1,.45-.09A.71.71,0,0,1,105.49,126.56Z"/></g></g></svg>