<svg xmlns="http://www.w3.org/2000/svg" width="32" height="32.004" viewBox="0 0 32 32.004">
  <g id="MongoDB" transform="translate(20186.999 8759)">
    <g id="Group_3164" data-name="Group 3164" transform="translate(-20178 -8759.2)">
      <path id="Path_5910" data-name="Path 5910" d="M25.888,46.027l-.852-.291s.1-4.343-1.455-4.654c-1.039-1.205.167-51.117,3.907-.166a3.038,3.038,0,0,0-1.517,1.746,16.027,16.027,0,0,0-.083,3.366Z" transform="translate(-17.995 -13.824)" fill="#fff" fill-rule="evenodd"/>
      <path id="Path_5911" data-name="Path 5911" d="M25.888,46.027l-.852-.291s.1-4.343-1.455-4.654c-1.039-1.205.167-51.117,3.907-.166a3.038,3.038,0,0,0-1.517,1.746,16.027,16.027,0,0,0-.083,3.366Z" transform="translate(-17.995 -13.824)" fill="#a6a385" fill-rule="evenodd"/>
      <path id="Path_5912" data-name="Path 5912" d="M32.579,28.292a15.1,15.1,0,0,0,5.714-15.107C36.61,5.768,32.642,3.337,32.205,2.4A10.49,10.49,0,0,1,31.27.573l.312,20.633c0,.021-.644,6.317,1,7.086" transform="translate(-24.229 -0.287)" fill="#fff" fill-rule="evenodd"/>
      <path id="Path_5913" data-name="Path 5913" d="M32.579,28.292a15.1,15.1,0,0,0,5.714-15.107C36.61,5.768,32.642,3.337,32.205,2.4A10.49,10.49,0,0,1,31.27.573l.312,20.633c0,.021-.644,6.317,1,7.086" transform="translate(-24.229 -0.287)" fill="#499d4a" fill-rule="evenodd"/>
      <path id="Path_5914" data-name="Path 5914" d="M6.6,28.276S-.4,23.5.018,15.081c.4-8.416,5.34-12.551,6.3-13.3A1.935,1.935,0,0,0,7,.2c.436.935.353,13.984.415,15.522C7.6,21.647,7.083,27.154,6.6,28.276Z" fill="#fff" fill-rule="evenodd"/>
      <path id="Path_5915" data-name="Path 5915" d="M6.6,28.276S-.4,23.5.018,15.081c.4-8.416,5.34-12.551,6.3-13.3A1.935,1.935,0,0,0,7,.2c.436.935.353,13.984.415,15.522C7.6,21.647,7.083,27.154,6.6,28.276Z" fill="#58aa50" fill-rule="evenodd"/>
    </g>
    <rect id="Rectangle_1691" data-name="Rectangle 1691" width="32" height="32" transform="translate(-20187 -8759)" fill="none"/>
  </g>
</svg>
