<svg id="SQL" xmlns="http://www.w3.org/2000/svg" width="32" height="32" viewBox="0 0 32 32">
  <rect id="Rectangle_1675" data-name="Rectangle 1675" width="32" height="32" fill="none"/>
  <g id="Group_5275" data-name="Group 5275" transform="translate(3.5 3.5)">
    <path id="Path_5897" data-name="Path 5897" d="M643.248,367.532a7.737,7.737,0,0,0-3.3.485c-.255.1-.662.1-.7.433.137.138.153.363.273.555a4.025,4.025,0,0,0,.884,1.056c.357.277.714.554,1.089.8.662.417,1.411.659,2.056,1.075.375.242.748.554,1.124.814.186.138.3.364.543.45v-.052c-.12-.155-.153-.381-.271-.555-.17-.172-.34-.329-.51-.5a8.188,8.188,0,0,0-1.768-1.749c-.545-.382-1.736-.9-1.956-1.541l-.034-.035a6.754,6.754,0,0,0,1.174-.279c.577-.155,1.1-.12,1.7-.276.272-.07.545-.157.818-.242v-.157c-.307-.311-.527-.728-.851-1.022a22.746,22.746,0,0,0-2.8-2.131c-.528-.347-1.208-.571-1.769-.866-.2-.1-.543-.155-.663-.33a7.007,7.007,0,0,1-.7-1.333c-.492-.952-.969-2.008-1.394-3.014a18.757,18.757,0,0,0-.867-1.974,17.292,17.292,0,0,0-6.581-6.478,8.047,8.047,0,0,0-2.176-.711c-.426-.018-.85-.052-1.275-.069a6.827,6.827,0,0,1-.783-.607c-.97-.623-3.468-1.974-4.182-.19-.459,1.127.68,2.235,1.071,2.806a8.143,8.143,0,0,1,.867,1.3c.119.3.153.607.273.918a20.9,20.9,0,0,0,.884,2.322,8.215,8.215,0,0,0,.628,1.073c.137.192.375.277.425.59a5.038,5.038,0,0,0-.392,1.3,7.759,7.759,0,0,0,.494,5.82c.271.433.918,1.386,1.786,1.021.765-.311.6-1.3.816-2.164.051-.209.017-.346.118-.485v.035c.238.484.477.951.7,1.437a9.809,9.809,0,0,0,2.211,2.32c.407.313.73.849,1.24,1.04v-.052h-.034a1.873,1.873,0,0,0-.391-.346,8.487,8.487,0,0,1-.885-1.04,22.273,22.273,0,0,1-1.9-3.152c-.273-.538-.51-1.127-.731-1.663-.1-.207-.1-.52-.272-.623a6.484,6.484,0,0,0-.816,1.177,9.974,9.974,0,0,0-.477,2.617c-.068.018-.034,0-.068.034-.544-.138-.73-.71-.935-1.194a7.63,7.63,0,0,1-.153-4.626c.119-.363.63-1.506.425-1.853-.1-.331-.442-.519-.629-.78a6.872,6.872,0,0,1-.612-1.108c-.408-.97-.613-2.044-1.054-3.014a9.288,9.288,0,0,0-.85-1.334,8.554,8.554,0,0,1-.936-1.35.819.819,0,0,1-.068-.71.275.275,0,0,1,.239-.226c.22-.19.849.052,1.07.156a8.6,8.6,0,0,1,1.683.866c.238.174.493.5.8.59h.357c.544.12,1.157.034,1.667.19a10.779,10.779,0,0,1,2.448,1.2,15.272,15.272,0,0,1,5.3,5.924c.2.4.29.762.477,1.177.357.85.8,1.716,1.156,2.547a11.488,11.488,0,0,0,1.208,2.322c.254.363,1.275.554,1.734.744a12.048,12.048,0,0,1,1.173.484c.578.363,1.155.779,1.7,1.178.271.208,1.122.641,1.173.987" transform="translate(-620.221 -348.196)" fill="#00758f" fill-rule="evenodd"/>
    <path id="Path_5898" data-name="Path 5898" d="M634.644,359.769a2.665,2.665,0,0,0-.7.087v.035h.033a5.842,5.842,0,0,0,.544.711c.137.277.256.553.392.83.017-.017.033-.035.033-.035a.98.98,0,0,0,.358-.866,3.9,3.9,0,0,1-.2-.364c-.1-.173-.323-.259-.46-.4" transform="translate(-628.96 -355.486)" fill="#5d87a1" fill-rule="evenodd"/>
  </g>
</svg>
